<?xml version="1.0" encoding="UTF-8"?>
<svg xmlns="http://www.w3.org/2000/svg" version="1.1" xmlns:xlink="http://www.w3.org/1999/xlink" viewBox="0 0 237 227">
  <defs>
    <style>
      .cls-1 {
        fill: #ffde00;
      }

      .cls-2 {
        fill: #b66e28;
      }

      .cls-3 {
        fill: #fff;
      }

      .cls-4 {
        fill: #58cc02;
      }

      .cls-5 {
        fill: none;
      }

      .cls-6 {
        fill: #f49000;
      }

      .cls-7 {
        fill: #89e219;
      }

      .cls-8 {
        fill: #4b4b4b;
      }

      .cls-9 {
        fill: #ffc200;
      }

      .cls-10 {
        clip-path: url(#clippath);
      }
    </style>
    <clipPath id="clippath">
      <rect class="cls-5" x="41.5" y="11.9" width="154" height="203.3" transform="translate(-22.4 197.7) rotate(-74.6)"/>
    </clipPath>
  </defs>
  <!-- Generator: Adobe Illustrator 28.7.2, SVG Export Plug-In . SVG Version: 1.2.0 Build 154)  -->
  <g>
    <g id="Layer_1">
      <g id="Layer_1-2" data-name="Layer_1">
        <g class="cls-10">
          <g>
            <path class="cls-6" d="M36.9,148.1c3.7-2.3,8.6-1.2,10.8,2.6h0l6.6,10.8c2.3,3.7,1.1,8.6-2.7,10.9-3.7,2.2-8.6,1.1-10.9-2.7l-6.6-10.7c-2.3-3.7-1.1-8.6,2.7-10.9h.1Z"/>
            <path class="cls-6" d="M171,185.1c2.1,3.8.6,8.6-3.3,10.7l-11.1,5.8c-3.9,2-8.7.5-10.7-3.3-2.1-3.8-.6-8.6,3.3-10.7l11.1-5.8c3.9-2,8.6-.6,10.7,3.2h0Z"/>
            <path class="cls-4" d="M39.3,52.5l80.7,45.3c3.5,2,4.7,6.3,2.8,9.9-.4.7-.9,1.4-1.5,1.9-17.6,16-43.9,19-65.2,7-21.1-11.7-32.2-35.7-27.5-59.2.8-4,4.6-6.4,8.6-5.7.7,0,1.4.4,2.1.7h0Z"/>
            <path class="cls-4" d="M217.7,101.7c4,0,7.2,3.4,7.1,7.4,0,.7-.2,1.5-.4,2.2-8.1,22.6-29.9,37.4-54,36.7-24.5-.6-45.5-16.7-52.4-39.5-1.2-3.8.9-7.8,4.7-9,.8-.3,1.6-.4,2.5-.3l92.4,2.4h0Z"/>
            <path class="cls-4" d="M178.2,50.1c-2.7-.7-5.5-.8-8.3-.6-17.1,2.3-28.1,2.7-34,1.1-5.9-1.7-15.1-7.7-28.6-18.4-2.3-1.7-4.8-2.9-7.6-3.8-11.1-3-22.5,3.5-25.5,14.5l-17,61.5c-9,32.6,10.2,66.4,42.8,75.5,32.8,8.9,66.5-10.3,75.5-42.9l17-61.5c3-11-3.4-22.4-14.5-25.5h.2Z"/>
            <path class="cls-7" d="M132.2,143.8l-14.9-4.1c-.6-.2-1.3.2-1.5.8v.3c.4,3.9,3.1,7.1,7,8.1,4,1.1,8.2-.3,10.3-3.4.3-.6.2-1.3-.4-1.6-.2-.1-.3-.2-.4-.2h-.1ZM106.9,138.4c.3-.6.2-1.3-.3-1.6,0-.1-.2-.1-.4-.2l-14.9-4.1c-.6-.3-1.2,0-1.4.6,0,.2,0,.4,0,.6.3,4,3.2,7.2,7,8.1,3.8,1.1,8-.3,10.1-3.4h0ZM115.7,152.8l-14.9-4.1c-.6-.2-1.3.1-1.5.8v.4c.3,4,3.2,7.2,7,8.1,4,1.1,8.2-.3,10.2-3.4.3-.6.2-1.3-.3-1.6,0-.1-.3-.2-.4-.2h0Z"/>
            <path class="cls-7" d="M109.6,44.3l12.5,24.4c.5,1.1,0,2.5-1.1,2.9-.2,0-.4,0-.6.2-9,1.2-17.4-5.1-18.6-14.1-.7-5.1,1-10.1,4.6-13.7,1.2-1.1,2.5-.9,3.1.4h0Z"/>
            <path class="cls-7" d="M99.5,46.4l12.2,24.3c.5,1.1,0,2.5-1.1,2.9-.2,0-.4,0-.6.2-9,1.2-17.3-5.1-18.5-14.1-.7-5.1,1-10.1,4.6-13.8.8-.8,2.2-.8,3,0,.2,0,.3.3.4.5Z"/>
            <path class="cls-7" d="M103.7,52.1l1.7.5c12.2,3.4,19.5,15.9,16.1,28.1h0l-3.9,14.4c-3.4,12.2-16,19.4-28.2,16h0l-1.7-.5c-12.2-3.4-19.5-15.9-16.1-28.1h0l3.9-14.4c3.4-12.2,16-19.3,28.3-16h-.1Z"/>
            <path class="cls-7" d="M161.6,58.6c1.2-.8,2.5-.3,2.9,1.1,2.2,8.8-3.2,17.7-12.1,19.9-5,1.2-10.2,0-14.3-3.1-.9-.8-1-2.2-.2-3.1.1,0,.2-.3.4-.4l23.3-14.5h0Z"/>
            <path class="cls-7" d="M169.2,65.7c.9-.7,2.3-.4,2.9.5.1.2.2.4.3.7,2.2,8.8-3.2,17.7-12.1,19.9-5,1.2-10.2,0-14.3-3.1-.9-.8-1-2.2-.2-3.1.1,0,.2-.3.4-.4l23-14.6h0Z"/>
            <path class="cls-7" d="M162.7,68.4c12.2,3.4,19.4,16,16.1,28.2l-3.9,14.3c-3.4,12.2-16,19.4-28.2,16h0l-1.7-.5c-12.2-3.4-19.5-15.9-16.1-28.1h0l3.9-14.4c3.4-12.2,16-19.4,28.2-16h0l1.7.5"/>
            <path class="cls-7" d="M142.7,70.4c-7.7,4.7-17.7,2.2-22.5-5.4-.2-.3-.3-.6-.5-.9-4.1,14.2-7.6,26.8-10.5,38l11.5,3.1,11.4,3.2c3.3-11.1,6.8-23.8,10.6-38Z"/>
            <path class="cls-3" d="M101.7,60.5c9,2.5,14.3,11.7,11.8,20.7l-2.7,9.8c-2.7,8.9-12.1,14-21,11.3-8.7-2.6-13.8-11.5-11.5-20.2l2.7-9.8c2.5-8.9,11.7-14.2,20.6-11.8h0Z"/>
            <path class="cls-8" d="M101.4,70.4c4.3,1.2,6.8,5.6,5.6,9.9l-2.3,8.4c-1.3,4.2-5.8,6.6-10.1,5.3-4-1.3-6.4-5.5-5.5-9.6l2.3-8.4c1.2-4.2,5.6-6.7,9.9-5.6h0Z"/>
            <path class="cls-3" d="M95.1,68.1c2.7.8,4.3,3.5,3.5,6.2-.7,2.7-3.5,4.2-6.2,3.5s-4.3-3.5-3.5-6.2c.7-2.7,3.4-4.3,6.1-3.5h0Z"/>
            <path class="cls-3" d="M160.1,76.6c9,2.5,14.3,11.7,11.8,20.7l-2.7,9.8c-2.7,8.9-12.1,14-21,11.3-8.7-2.6-13.8-11.5-11.5-20.2l2.7-9.8c2.5-8.9,11.7-14.2,20.6-11.8h0Z"/>
            <path class="cls-8" d="M155.3,85.2c4.3,1.2,6.8,5.6,5.6,9.9l-2.3,8.4c-1.3,4.2-5.8,6.6-10.1,5.3-4-1.3-6.4-5.5-5.5-9.6l2.3-8.4c1.2-4.2,5.6-6.7,9.9-5.6h.1Z"/>
            <path class="cls-3" d="M148.1,82.7c2.7.8,4.3,3.5,3.5,6.2-.7,2.7-3.5,4.2-6.2,3.5s-4.3-3.5-3.5-6.2c.6-2.6,3.4-4.2,6.2-3.5h0Z"/>
            <path class="cls-7" d="M135,106.3c13.7-1.9,25.9-2.4,36.2-1.5,0,0-2.7,17.5-16.7,17.9-17.9.6-19.5-16.4-19.5-16.4ZM82.9,103c-11.8-7.5-5.1-23.9-5.1-23.9,9.3,4.5,19.6,11.3,30.3,19.9,0,0-10.1,13.7-25.2,4.1h0Z"/>
            <path class="cls-6" d="M124.1,93.1c4.6,1.3,7.4,6.1,6.2,10.7h0l-3.8,14c-1.3,4.6-6.1,7.4-10.8,6.1-4.6-1.3-7.4-6.1-6.1-10.8l3.9-14c1.3-4.6,6.1-7.3,10.8-6.1h-.2Z"/>
            <path class="cls-2" d="M123.2,96.4c3.6,1,5.7,4.7,4.7,8.3l-2.6,9.3c-1,3.6-4.7,5.7-8.3,4.7-3.6-1-5.6-4.7-4.7-8.3l2.6-9.3c1-3.5,4.7-5.6,8.3-4.7Z"/>
            <path class="cls-9" d="M121.4,102.9l11.8,1.2c.3,0,.5,0,.4-.4.7-6.7-4.3-12.7-11.1-13.3-5.1-.5-10,2.3-12.2,6.9,0,.2,0,.5.2.6l10.8,5h.1Z"/>
            <path class="cls-1" d="M125.9,96.9c-.2,0-.3,0-.4-.2-1.3-.8-2.7-1.2-4.2-1.2s-1.7-.9-1.7-1.9.8-1.6,1.6-1.6c2.2,0,4.3.6,6.1,1.7.9.5,1.1,1.6.6,2.4-.4.6-1.2,1-2,.8Z"/>
          </g>
        </g>
      </g>
    </g>
  </g>
</svg>