<?xml version="1.0" encoding="UTF-8"?>
<svg xmlns="http://www.w3.org/2000/svg" version="1.1" viewBox="0 0 162 220">
  <defs>
    <style>
      .cls-1 {
        stroke: #ffde00;
        stroke-width: 3.5px;
      }

      .cls-1, .cls-2, .cls-3, .cls-4, .cls-5 {
        fill: none;
      }

      .cls-1, .cls-2, .cls-4, .cls-5 {
        stroke-linecap: round;
      }

      .cls-1, .cls-4, .cls-5 {
        stroke-linejoin: round;
      }

      .cls-6 {
        fill: #ff68d5;
      }

      .cls-6, .cls-7, .cls-8, .cls-9, .cls-10, .cls-11 {
        isolation: isolate;
      }

      .cls-6, .cls-7, .cls-11 {
        opacity: .5;
      }

      .cls-2 {
        stroke: #f49000;
        stroke-width: 14.6px;
      }

      .cls-12, .cls-13, .cls-14, .cls-15 {
        fill-rule: evenodd;
      }

      .cls-12, .cls-16 {
        fill: #89e219;
      }

      .cls-17 {
        fill: #8ee000;
      }

      .cls-13 {
        fill: #ffb8d1;
      }

      .cls-18, .cls-14 {
        fill: #fff;
      }

      .cls-19 {
        fill: #58cc02;
      }

      .cls-7, .cls-9, .cls-20 {
        fill: #ffc200;
      }

      .cls-8 {
        fill: #afafaf;
        opacity: .3;
      }

      .cls-4 {
        stroke: #43c000;
        stroke-width: 4.8px;
      }

      .cls-21 {
        fill: #b06800;
      }

      .cls-22, .cls-15 {
        fill: #43c000;
      }

      .cls-23 {
        fill: #f49000;
      }

      .cls-9 {
        opacity: .7;
      }

      .cls-24 {
        fill: #4b4b4b;
      }

      .cls-10 {
        opacity: .6;
      }

      .cls-10, .cls-11 {
        fill: #14c3fb;
      }

      .cls-5 {
        stroke: #fff;
        stroke-width: 6.6px;
      }
    </style>
  </defs>
  <!-- Generator: Adobe Illustrator 28.7.2, SVG Export Plug-In . SVG Version: 1.2.0 Build 154)  -->
  <g>
    <g id="Layer_1">
      <path class="cls-8" d="M68,210h43c2.8,0,5,2.2,5,5h0c0,2.8-2.2,5-5,5h-43c-2.8,0-5-2.2-5-5h0c0-2.8,2.2-5,5-5Z"/>
      <path class="cls-19" d="M17.2,62.1c-2.2-13.8,11.1-25.2,24.7-21.8,12.7,3.1,26.1,5.7,32.9,4.7,6.7-1.1,18.8-7.6,29.9-14.5,11.9-7.4,28-.6,30.2,13.3l9.7,61.7c5.1,32.5-17.1,62.9-49.6,68s-62.9-17.1-68-49.6l-9.7-61.7h-.1Z"/>
      <path class="cls-12" d="M80.4,60.9c7.5,5.6,18.9,3.8,25-3.9,6.2-7.7,4.9,38.4,4.9,38.3,0,0-3.9.5-11.5,1.8-2.1.3-5.8.9-11.1,1.8-9.8-29-12.2-41.6-7.2-37.9h-.1Z"/>
      <path class="cls-17" d="M118,37.7l-14.4,22.1c-.8,1.2-.2,2.8,1.2,3.1,6.5,1.8,13.6-.9,17.4-6.8,3.8-5.8,3.4-13.4-.9-18.7-.9-1.1-2.6-1-3.4.2h.1Z"/>
      <path class="cls-17" d="M128.9,40.7l-14.4,22.1c-.8,1.2-.2,2.8,1.2,3.1,6.5,1.8,13.6-.9,17.4-6.8,3.8-5.8,3.4-13.4-.9-18.7-.9-1.1-2.6-1-3.4.2h0Z"/>
      <path class="cls-16" d="M62.7,46.3l19.8,16.3c1.1.9,1,2.5-.2,3.3-5.6,3.5-12.9,3.1-18.2-1.2-5.2-4.3-7.1-11.4-4.6-17.6.5-1.3,2.1-1.7,3.2-.8Z"/>
      <path class="cls-16" d="M53.1,52.6l18.7,15.4c1,.8.9,2.4-.2,3.1-5.3,3.3-12.2,2.9-17.1-1.2-4.9-4.1-6.7-10.8-4.4-16.5.5-1.2,2-1.6,3-.8Z"/>
      <path class="cls-16" d="M42.7,83.9c-2-13,6.9-25.2,19.9-27.3,13-2,25.2,6.9,27.3,19.9l1.8,11.6c2,13-6.9,25.2-19.9,27.3-13,2-25.2-6.9-27.3-19.9,0,0-1.8-11.6-1.8-11.6Z"/>
      <path class="cls-18" d="M68.2,64.3h0c11.6-1.8,22.5,6.1,24.3,17.7h0c1.8,11.6-6.1,22.5-17.7,24.3h0c-11.6,1.8-22.5-6.1-24.3-17.7h0c-1.8-11.6,6.1-22.5,17.7-24.3Z"/>
      <path class="cls-12" d="M136.7,55.7c-3.9-5.7-10.8-9-18-7.9-10,1.6-16.8,10.9-15.3,20.9l3.5,22.6c1.6,10,10.9,16.8,20.9,15.3,7.3-1.1,12.8-6.4,14.8-13,0,0-5.9-37.9-5.9-37.9Z"/>
      <path class="cls-18" d="M118.6,56.4h0c9.8-1.5,19,5.2,20.5,15l1,6.5c1.5,9.8-5.2,19-15,20.5h0c-9.8,1.5-19-5.2-20.5-15l-1-6.5c-1.5-9.8,5.2-19,15-20.5Z"/>
      <path class="cls-24" d="M65.4,69.4h0c8-4.4,18-1.5,22.4,6.4v.4c4.6,7.9,1.7,18-6.3,22.4h0c-8,4.4-18,1.5-22.4-6.4v-.4c-4.6-7.9-1.7-18,6.3-22.4Z"/>
      <path class="cls-24" d="M117.2,59.8h0c8.2-1.3,15.8,4.3,17.1,12.5l.4,2.6c1.3,8.2-4.3,15.8-12.5,17.1h0c-8.2,1.3-15.8-4.3-17.1-12.5l-.4-2.6c-1.3-8.2,4.3-15.8,12.5-17.1Z"/>
      <rect class="cls-23" x="92.6" y="87.4" width="16.3" height="34.6" rx="8.1" ry="8.1" transform="translate(-15 16.8) rotate(-8.9)"/>
      <path class="cls-21" d="M94.9,97.4c-.8-3.3,1.4-6.5,4.7-7,3.1-.5,6.1,1.7,6.6,4.8l2.8,17.8c.4,2.7-1.4,5.2-4.1,5.7-2.6.4-5-1.2-5.6-3.7l-4.3-17.5h0Z"/>
      <path class="cls-20" d="M111.1,94.7c0,.3,0,.6-.3.8l-4,2.5-18,.8c-.4,0-.7-.3-.7-.7.5-5.3,4.5-9.8,10-10.6,5.6-.9,10.8,2.3,12.9,7.2h0Z"/>
      <path class="cls-1" d="M96.7,91.2c.7-.4,2.8-1,4.4-.7"/>
      <rect class="cls-16" x="133.9" y="49.9" width="2.4" height="5.9" transform="translate(-6.5 21.5) rotate(-8.9)"/>
      <path class="cls-5" d="M84,82.4c.2,1.5-.1,4.9-2.6,6.8"/>
      <path class="cls-5" d="M128.8,75c.2,1.5-.1,4.9-2.6,6.8"/>
      <circle class="cls-19" cx="129.7" cy="135.1" r="22.7"/>
      <path class="cls-15" d="M126.8,157.6c-1.3,1.2-2.6,2.4-3.9,3.4-2.8-1.5-5.3-3.1-7.7-4.8-5.7-4.2-10.1-9.2-12.5-14.2s-3.1-10.3-.8-14.9c.7-1.3,1.6-2.3,2.8-2.9,1.2-.6,2.5-.8,3.7-.8,2.4,0,5,.9,7.4,1.8,1.2.4,2.3.9,3.3,1.3,1.4.6,2.7,1.1,4.2,1.6,2.5.9,4.6,1.5,6.4,1.5,3.9,0,7.3-1.1,10-3.7,2-1.9,3.8-4.6,5.2-8.4-.2,4-.8,8-1.8,11.8,0,0-.1,0-.2.1-3.8,3.5-8.4,4.9-13.3,4.9s-5.5-.8-8.1-1.7c-1.5-.5-3.1-1.2-4.6-1.8h0c-1.1-.4-2.1-.9-3-1.2-2.4-.9-4.4-1.5-5.8-1.5s-1.1,0-1.4.2c-.2.1-.5.3-.7.8-1.4,2.7-1.2,6.4.8,10.5,2,4.2,5.8,8.6,11.1,12.5,2.6,1.9,5.5,3.7,8.7,5.2l.2.3Z"/>
      <path class="cls-19" d="M93.9,142.3l-3.6-5.9,2.6-8.8,3.6-1.4h6.1c.4,0,2.1,1.3,2.9,1.9v5.4l-1.4,5.2-3.5,6.6-6.7-2.9h0Z"/>
      <path class="cls-4" d="M61,128.2c2.7,1.6,8.7,3.9,17.5,3.9s22.1-10.9,25.8-3.9c5.1,9.8-6.5,25.8-25.8,33.3-9.4,3.6-19.2,1.5-22.9,0"/>
      <path class="cls-22" d="M145.1,118.5c1.9,6.6.3,9-1.9,11.1l-.2-1.7.7-4.5c.2-.9.8-3.2,1.4-4.8h0Z"/>
      <circle class="cls-18" cx="74.1" cy="75.7" r="4.5"/>
      <circle class="cls-18" cx="121.3" cy="67.5" r="4.2"/>
      <path class="cls-14" d="M58.4,90.6c-2.8-5.9-1.7-12.7,2.1-17.5,3.3.3,6.2,2.5,7.4,5.8s-.7,9.6-5.3,11.3-3,.7-4.3.4Z"/>
      <path class="cls-14" d="M104.9,79.6c-2.1-5.5-.8-11.6,3.2-15.8,3.2.2,5.9,2.2,7,5.3s-.6,8.8-4.8,10.4-3.7.6-5.4,0h0Z"/>
      <path class="cls-13" d="M107.5,117.2c-.7.7-1.7,1.2-2.8,1.4-2.6.4-5-1.2-5.6-3.7l-1.7-7c5.1.5,9.2,4.3,10.1,9.3Z"/>
      <path class="cls-16" d="M51.8,97.5l29.3,8.8-.4,1.4c-1.2,3.8-5.2,6-9.1,4.9l-15.4-4.6c-3.8-1.2-6-5.2-4.9-9.1l.4-1.4h.1Z"/>
      <rect class="cls-10" x="150.1" y="35.9" width="9.3" height="9.3" rx="1.4" ry="1.4" transform="translate(16.7 121.3) rotate(-45)"/>
      <rect class="cls-6" x="80.9" y="1.9" width="9.3" height="9.3" rx="1.4" ry="1.4" transform="translate(20.4 62.4) rotate(-45)"/>
      <rect class="cls-11" x="6.1" y="8.4" width="16.9" height="16.9" rx="4.5" ry="4.5" transform="translate(-7.7 15.3) rotate(-45)"/>
      <rect class="cls-9" x="1.8" y="41.5" width="8.7" height="8.7" rx="1.4" ry="1.4" transform="translate(-30.6 17.8) rotate(-45)"/>
      <rect class="cls-7" x="140.9" y="22.4" width="6.3" height="6.3" rx="1.4" ry="1.4" transform="translate(24.1 109.3) rotate(-45)"/>
      <path class="cls-2" d="M89.9,189.4c-2.4,6.1-3.9,9.8-7.8,13.3"/>
      <path class="cls-2" d="M90.9,189.4c2.4,6.1,3.9,9.8,7.8,13.3"/>
      <line class="cls-3" x1="70.9" y1="67.5" x2="76" y2="100.4"/>
      <line class="cls-3" x1="57.2" y1="86.7" x2="89.7" y2="81.2"/>
      <line class="cls-3" x1="117.2" y1="59.8" x2="122.2" y2="92"/>
      <line class="cls-3" x1="104.9" y1="78.2" x2="134.5" y2="73.3"/>
    </g>
  </g>
</svg>