<?xml version="1.0" encoding="UTF-8"?>
<svg id="Layer_1" xmlns="http://www.w3.org/2000/svg" version="1.1" viewBox="0 0 136 79.2">
  <!-- Generator: Adobe Illustrator 29.0.1, SVG Export Plug-In . SVG Version: 2.1.0 Build 192)  -->
  <defs>
    <style>
      .st0 {
        fill: #122431;
      }

      .st1, .st2, .st3, .st4 {
        fill-rule: evenodd;
      }

      .st1, .st5 {
        fill: #89e219;
      }

      .st6 {
        fill: #ffde00;
      }

      .st7, .st2 {
        fill: #fff;
      }

      .st8 {
        fill: none;
      }

      .st3 {
        fill: #f49000;
      }

      .st4 {
        fill: #58cc02;
      }

      .st9 {
        fill: #ffc200;
      }
    </style>
  </defs>
  <path class="st4" d="M125.4,19.6v59.6h-57.7V11c5.6,0,15.8-3.2,30.5-9.5,9.9-4.2,21.4.4,25.6,10.3,1,2.4,1.5,5,1.5,7.7Z"/>
  <path class="st4" d="M10.5,19.6v59.6s57.7,0,57.7,0V11c-5.6,0-15.8-3.2-30.5-9.5-9.9-4.2-21.4.4-25.6,10.3-1,2.4-1.5,5-1.5,7.7Z"/>
  <path class="st5" d="M42.5,11.9l17.5,19c.9,1,.6,2.6-.7,3.2-6,2.7-13.1,1.2-17.6-3.8-4.5-5-5.3-12.3-2-18,.6-1.2,1.9-1.4,2.8-.4Z"/>
  <path class="st1" d="M56.6,27.3c5.8,6.4,16.5,6.4,22.2,0,0,15,0,37.4,0,37.4s-7.4,0-22.2,0c0-11,0-23.4,0-37.3Z"/>
  <path class="st5" d="M34.1,16.4l17.1,19c.9,1,.6,2.6-.7,3.2-6,2.7-13.1,1.2-17.7-3.9-4.5-5.1-5.3-12.3-2-18,.7-1.2,2.4-1.3,3.3-.3Z"/>
  <path class="st1" d="M39.2,20.4h1.7c12,0,21.6,9.7,21.6,21.7v14c0,12-9.7,21.7-21.6,21.7h-1.7c-12,0-21.6-9.7-21.6-21.7v-14c0-12,9.7-21.7,21.6-21.7Z"/>
  <path class="st5" d="M92.7,11.9l-17,19c-.9,1-.6,2.6.7,3.2,6,2.7,13.1,1.2,17.7-3.9,4.5-5,5.3-12.3,2-18-.7-1.2-2.4-1.3-3.3-.3Z"/>
  <path class="st5" d="M100.9,16.4l-17.1,19c-.9,1-.6,2.6.7,3.2,6,2.7,13.1,1.2,17.7-3.9,4.5-5,5.3-12.3,2-18-.7-1.2-2.4-1.3-3.3-.3Z"/>
  <path class="st1" d="M95.1,19.9h1.7c12,0,21.6,9.7,21.6,21.7v14c0,12-9.7,21.7-21.6,21.7h-1.6c-11.9,0-21.5-9.6-21.6-21.5v-14c-.2-12,9.4-21.8,21.4-21.9h.2Z"/>
  <path class="st3" d="M67.9,55.5c4.5,0,8.2,3.7,8.2,8.2v2.3c0,4.5-3.7,8.2-8.2,8.2s-8.2-3.7-8.2-8.2v-2.3c0-4.5,3.7-8.2,8.2-8.2Z"/>
  <path class="st9" d="M56.6,64.7c1-5.2,5.7-9.2,11.7-9.2s10.1,4.1,11,9.2c-3.8.9-7.6,1.7-11.4,2.6-3.8-.9-7.6-1.7-11.4-2.6Z"/>
  <path class="st2" d="M56.1,49.3c0,8.7-7.2,15.9-15.9,15.9s-15.9-7.2-15.9-15.9c0-8.7,7.2-15.9,15.9-15.9s15.9,7.2,15.9,15.9Z"/>
  <path class="st6" d="M65.8,60.7c-.9.3-1.8-.1-2.1-1-.3-.8.1-1.8,1-2.1,2-.7,4.1-.7,6.1,0,.9.3,1.3,1.2,1,2.1-.3.9-1.2,1.3-2.1,1-1.3-.5-2.5-.5-3.8,0Z"/>
  <circle class="st0" cx="42.7" cy="49.1" r="7.7"/>
  <circle class="st7" cx="49.5" cy="46.2" r="1.8"/>
  <path class="st1" d="M57,45.9H21.6c0-11.6,8-21,17.7-21,9.8,0,17.7,9.4,17.7,21Z"/>
  <path class="st1" d="M57.7,51.9H22.3c0,11.1,8,20.1,17.7,20.1,9.8,0,17.7-9,17.7-20.1Z"/>
  <circle class="st7" cx="95.6" cy="49.3" r="15.9"/>
  <circle class="st0" cx="93.2" cy="49.1" r="7.7"/>
  <circle class="st7" cx="99.8" cy="46.2" r="1.8"/>
  <path class="st1" d="M96.6,24.9c9.8,0,17.7,9.4,17.7,21h-35.5c0-11.6,8-21,17.7-21Z"/>
  <path class="st1" d="M95.9,71.9c9.8,0,17.7-9,17.7-20.1h-35.5c0,11.1,8,20.1,17.7,20.1Z"/>
  <line class="st8" x1="125.7" y1="79.2" x2="9.8" y2="79.2"/>
</svg>