<?xml version="1.0" encoding="UTF-8"?>
<svg xmlns="http://www.w3.org/2000/svg" version="1.1" viewBox="0 0 194 123">
  <defs>
    <style>
      .cls-1 {
        stroke-width: 2.8px;
      }

      .cls-1, .cls-2, .cls-3, .cls-4, .cls-5, .cls-6 {
        fill: none;
      }

      .cls-1, .cls-3, .cls-6 {
        stroke-linecap: round;
      }

      .cls-1, .cls-5 {
        stroke: #43c000;
      }

      .cls-1, .cls-6 {
        stroke-linejoin: round;
      }

      .cls-7, .cls-8 {
        fill-rule: evenodd;
      }

      .cls-7, .cls-9 {
        fill: #89e219;
      }

      .cls-10 {
        fill: #8ee000;
      }

      .cls-11 {
        fill: #fff;
      }

      .cls-2 {
        stroke-width: 10.7px;
      }

      .cls-2, .cls-3, .cls-4 {
        stroke: #89e219;
      }

      .cls-12 {
        fill: #58cc02;
      }

      .cls-13 {
        fill: #afafaf;
        isolation: isolate;
        opacity: .3;
      }

      .cls-8, .cls-14 {
        fill: #f49000;
      }

      .cls-3 {
        stroke-width: 12.8px;
      }

      .cls-4 {
        stroke-width: 8px;
      }

      .cls-5 {
        stroke-width: 14.2px;
      }

      .cls-6 {
        stroke: #ffde00;
        stroke-width: 3.5px;
      }

      .cls-15 {
        fill: #4b4b4b;
      }

      .cls-16 {
        fill: #ffc200;
      }
    </style>
  </defs>
  <!-- Generator: Adobe Illustrator 28.7.2, SVG Export Plug-In . SVG Version: 1.2.0 Build 154)  -->
  <g>
    <g id="Layer_1">
      <g>
        <path class="cls-13" d="M44,113h133c2.8,0,5,2.2,5,5h0c0,2.8-2.2,5-5,5H44c-2.8,0-5-2.2-5-5h0c0-2.8,2.2-5,5-5Z"/>
        <path class="cls-5" d="M141.6,69.9c4.3-5.8,16.3-17,30.1-15"/>
        <path class="cls-8" d="M34.8,6.4c3.8-2,8.4-.5,10.4,3.3l4,7.4c2,3.8.5,8.4-3.3,10.4-3.8,2-8.4.5-10.4-3.3l-4-7.4c-2-3.8-.5-8.4,3.3-10.4Z"/>
        <path class="cls-8" d="M.8,42.6c.4-4.2,3.9-7.4,7.7-7l10.8,1.1c3.8.4,6.6,4.2,6.1,8.4-.4,4.2-3.9,7.4-7.7,7l-10.8-1.1c-3.8-.4-6.6-4.2-6.1-8.4Z"/>
        <rect class="cls-12" x="29.7" y="23.9" width="129.7" height="89.6" rx="44.8" ry="44.8"/>
        <path class="cls-12" d="M54.6,19.3c0-14,14.8-23.2,27.7-17.8,12,5.1,24.9,9.7,31.8,9.7s19.7-4.6,31.8-9.7c12.9-5.4,27.7,3.8,27.7,17.8v34.8c0,32.9-26.6,59.5-59.5,59.5s-59.5-26.6-59.5-59.5V19.3Z"/>
        <path class="cls-7" d="M117.2,27.9c6.5,6.6,18.1,6.6,25.3,0,7.3-6.6-1.1,38.7-1.1,38.6s-3.9,0-11.7,0c-2.1,0-5.8,0-11.3,0-5.2-30.1-5.7-43-1.3-38.6Z"/>
        <path class="cls-10" d="M158,10.8l-17.6,19.6c-.9,1.1-.6,2.7.7,3.3,6.2,2.8,13.6,1.2,18.2-4,4.7-5.2,5.4-12.7,2-18.6-.7-1.2-2.4-1.4-3.3-.3Z"/>
        <path class="cls-10" d="M168.2,15.5l-17.6,19.6c-.9,1.1-.6,2.7.7,3.3,6.2,2.8,13.6,1.2,18.2-4,4.7-5.2,5.4-12.7,2-18.6-.7-1.2-2.4-1.4-3.3-.3Z"/>
        <path class="cls-9" d="M102,10.7l17.1,19.2c.9,1,.6,2.6-.7,3.2-6.1,2.6-13.3,1.1-17.8-4-4.5-5.1-5.2-12.4-1.9-18.1.7-1.2,2.3-1.3,3.3-.3Z"/>
        <path class="cls-9" d="M91.5,15.5l16.1,18.1c.9,1,.5,2.5-.7,3-5.7,2.5-12.5,1-16.7-3.8-4.2-4.8-4.9-11.7-1.8-17,.7-1.1,2.2-1.3,3.1-.3Z"/>
        <path class="cls-9" d="M76.4,44.8c0-13.2,10.7-23.9,23.9-23.9s23.9,10.7,23.9,23.9v11.8c0,13.2-10.7,23.9-23.9,23.9s-23.9-10.7-23.9-23.9v-11.8Z"/>
        <path class="cls-11" d="M101,29.3h0c9.2,0,16.6,7.4,16.6,16.6v9.3c0,9.2-7.4,16.6-16.6,16.6h0c-9.2,0-16.6-7.4-16.6-16.6v-9.3c0-9.2,7.4-16.6,16.6-16.6Z"/>
        <path class="cls-7" d="M173.6,31.5c-2.9-6.2-9.3-10.5-16.6-10.5s-18.3,8.2-18.3,18.3v22.8c0,10.1,8.2,18.3,18.3,18.3s13.7-4.3,16.6-10.5V31.5Z"/>
        <path class="cls-1" d="M75.7,58.1c-5.3,3.2-10,7.8-12.5,17.6"/>
        <path class="cls-11" d="M155.1,29.3h0c7.7,0,14,6.3,14,14v14.5c0,7.7-6.3,14-14,14h0c-7.7,0-14-6.3-14-14v-14.5c0-7.7,6.3-14,14-14Z"/>
        <path class="cls-15" d="M106.9,36.2h0c4.3,0,7.8,3.5,7.8,7.8v3.1c0,4.3-3.5,7.8-7.8,7.8h0c-4.3,0-7.8-3.5-7.8-7.8v-3.1c0-4.3,3.5-7.8,7.8-7.8Z"/>
        <path class="cls-15" d="M141.1,43.9c0-3.6,2.9-6.6,6.6-6.6s6.6,2.9,6.6,6.6v10.9c0,3.6-2.9,6.6-6.6,6.6s-6.6-2.9-6.6-6.6v-10.9Z"/>
        <path class="cls-2" d="M119.9,62.1c-3.4-5.3-15-18.1-37.2-9.8"/>
        <circle class="cls-9" cx="80.1" cy="52.1" r="7.1"/>
        <path class="cls-3" d="M141.1,60.6c4.9-5.8,16.8-13.7,30-7.9"/>
        <path class="cls-12" d="M173.3,56.7c-17.5-1.2-33.1,5.9-36.3,9.1v10.7c6.3,3.4,21.3,10.7,21.6,10,.3-.7,10.7-8.3,14.7-12v-17.8Z"/>
        <path class="cls-12" d="M87.6,53.6c17.5-1.2,34.1,7.3,37.3,10.5l-1,10.7c-6.3,3.4-21.3,10.7-21.6,10-.3-.7-10.7-8.3-14.7-12v-19.2Z"/>
        <path class="cls-14" d="M130.5,53.8h0c4.5,0,8.1,3.6,8.1,8.1v2.8c0,4.5-3.6,8.1-8.1,8.1h0c-4.5,0-8.1-3.6-8.1-8.1v-2.8c0-4.5,3.6-8.1,8.1-8.1Z"/>
        <path class="cls-16" d="M142.3,62.3c0,.3,0,.6-.3.7l-4.4,2.5s-4.2,0-9.3-1c-4-.8-7.1-1.7-8.4-2.1-.3-.1-.5-.4-.5-.8,1.3-5.1,5.6-7.8,11.2-7.8s10.4,3.3,11.6,8.5Z"/>
        <path class="cls-6" d="M128.6,57.3c.8-.3,2.9-.6,4.5,0"/>
        <rect class="cls-9" x="171.2" y="25.5" width="2.4" height="5.9"/>
        <path class="cls-12" d="M168.1,53.6l1.8.2c10.2,1.4,17.3,10.9,15.7,21.1l-3.5,21.4c-1.9,11.7-13.4,19.3-24.8,16.4-14.1-3.5-19.8-20.3-10.8-31.7l21.6-27.4Z"/>
        <path class="cls-12" d="M95.4,56.7h-1c-14.7,0-26.6,11.9-26.6,26.6v19.7c0,5.7,4.6,10.4,10.4,10.4h10.7c16.3,0,26.8-17.2,19.4-31.7l-12.8-25Z"/>
        <circle class="cls-12" cx="167.6" cy="70.4" r="18.5"/>
        <path class="cls-1" d="M147.3,104.4c3.2-2.9,8.1-9.1,11.8-17.3"/>
        <circle class="cls-12" cx="91.5" cy="67.6" r="19.2"/>
        <path class="cls-1" d="M173.1,82.5c-9,7.5-16,4-19.9.8-5.7-4.7-5.6-13.8-4.3-17.2"/>
        <path class="cls-1" d="M109.3,61.6c3.8,10.5-4.7,24-18.7,20.4"/>
        <path class="cls-1" d="M95.9,110.8c-2.3-5.3-5.2-15.6-5.4-27.6"/>
        <path class="cls-10" d="M100,98.6h13.7c.7,0,1.3.7,1,1.4-1.1,3.3-4.3,5.5-7.9,5.5-3.6,0-6.8-2.3-7.9-5.5-.2-.7.3-1.4,1-1.4Z"/>
        <path class="cls-10" d="M120.1,98.6h13.7c.7,0,1.3.7,1,1.4-1.1,3.3-4.3,5.5-7.9,5.5-3.6,0-6.8-2.3-7.9-5.5-.2-.7.3-1.4,1-1.4Z"/>
        <path class="cls-4" d="M136.8,40.4c5.5-5.8,18.9-13.7,33.1-7.2"/>
        <path class="cls-4" d="M121.5,42.9c-3.4-5.3-15-18.1-37.2-9.8"/>
      </g>
    </g>
  </g>
</svg>